<svg width="23" height="22" viewBox="0 0 23 22" fill="none" xmlns="http://www.w3.org/2000/svg">
<path d="M20.4604 0.848877H3.31685C2.64745 0.849612 2.00568 1.11586 1.53234 1.58919C1.059 2.06253 0.792758 2.7043 0.792023 3.3737V15.1562C0.792758 15.8256 1.059 16.4674 1.53234 16.9407C2.00568 17.4141 2.64745 17.6803 3.31685 17.6811C3.54002 17.6812 3.75401 17.7699 3.91181 17.9277C4.06961 18.0855 4.15832 18.2995 4.15846 18.5227V20.3168C4.15846 20.6215 4.24115 20.9204 4.39771 21.1818C4.55427 21.4431 4.77882 21.6571 5.04744 21.8009C5.31605 21.9446 5.61864 22.0128 5.92295 21.9981C6.22726 21.9834 6.52186 21.8863 6.77536 21.7173L12.6173 17.8224C12.7554 17.7299 12.9179 17.6807 13.0841 17.6811H17.187C17.7383 17.68 18.2743 17.4994 18.7137 17.1664C19.1531 16.8335 19.472 16.3664 19.6222 15.8359L22.8965 4.05011C22.9999 3.67481 23.0152 3.28074 22.9413 2.89856C22.8675 2.51637 22.7064 2.15639 22.4707 1.84663C22.235 1.53687 21.9309 1.28568 21.5823 1.11263C21.2336 0.939571 20.8497 0.849312 20.4604 0.848877ZM21.2733 3.60304L18.0006 15.3847C17.95 15.5614 17.8432 15.7168 17.6964 15.8275C17.5496 15.9381 17.3708 15.9979 17.187 15.9978H13.0841C12.5856 15.9972 12.0981 16.1448 11.6836 16.4219L5.84168 20.3168V18.5227C5.84094 17.8533 5.5747 17.2115 5.10136 16.7382C4.62802 16.2648 3.98625 15.9986 3.31685 15.9978C3.09368 15.9977 2.87969 15.909 2.72189 15.7512C2.56409 15.5934 2.47537 15.3794 2.47524 15.1562V3.3737C2.47537 3.15054 2.56409 2.93655 2.72189 2.77874C2.87969 2.62094 3.09368 2.53223 3.31685 2.5321H20.4604C20.5905 2.53243 20.7188 2.56277 20.8352 2.62076C20.9517 2.67875 21.0532 2.76283 21.1318 2.86646C21.2105 2.97008 21.2641 3.09045 21.2887 3.21821C21.3132 3.34597 21.3079 3.47766 21.2733 3.60304Z" fill="#04A547"/>
<path d="M5.84167 8.42333H10.0497C10.2729 8.42333 10.487 8.33466 10.6448 8.17683C10.8027 8.019 10.8913 7.80493 10.8913 7.58172C10.8913 7.35851 10.8027 7.14445 10.6448 6.98661C10.487 6.82878 10.2729 6.74011 10.0497 6.74011H5.84167C5.61846 6.74011 5.4044 6.82878 5.24656 6.98661C5.08873 7.14445 5.00006 7.35851 5.00006 7.58172C5.00006 7.80493 5.08873 8.019 5.24656 8.17683C5.4044 8.33466 5.61846 8.42333 5.84167 8.42333Z" fill="#04A547"/>
<path d="M13.4162 10.1066H5.84167C5.61846 10.1066 5.4044 10.1952 5.24656 10.3531C5.08873 10.5109 5.00006 10.725 5.00006 10.9482C5.00006 11.1714 5.08873 11.3855 5.24656 11.5433C5.4044 11.7011 5.61846 11.7898 5.84167 11.7898H13.4162C13.6394 11.7898 13.8534 11.7011 14.0113 11.5433C14.1691 11.3855 14.2578 11.1714 14.2578 10.9482C14.2578 10.725 14.1691 10.5109 14.0113 10.3531C13.8534 10.1952 13.6394 10.1066 13.4162 10.1066Z" fill="#04A547"/>
</svg>
