<svg width="24" height="24" viewBox="0 0 24 24" fill="none" xmlns="http://www.w3.org/2000/svg">
<g clip-path="url(#clip0_68_840)">
<path d="M22.4464 1.55474C20.3805 -0.516293 17.0208 -0.516293 14.9549 1.55474L1.2196 15.2849C1.11221 15.3923 1.04573 15.5304 1.02528 15.6787L0.00765955 23.2162C-0.0230225 23.431 0.0536826 23.6458 0.201979 23.7941C0.329821 23.9219 0.508799 23.9986 0.687777 23.9986C0.718459 23.9986 0.749141 23.9986 0.779823 23.9935L5.32076 23.3798C5.69917 23.3287 5.96508 22.981 5.91395 22.6026C5.86281 22.2242 5.51508 21.9583 5.13667 22.0094L1.49574 22.5003L2.20654 17.2435L7.73953 22.7764C7.86737 22.9043 8.04635 22.981 8.22532 22.981C8.4043 22.981 8.58328 22.9094 8.71112 22.7764L22.4464 9.04625C23.4487 8.04398 24.001 6.71442 24.001 5.29794C24.001 3.88146 23.4487 2.5519 22.4464 1.55474ZM15.2208 3.24225L17.5271 5.54851L4.99349 18.0821L2.68722 15.7758L15.2208 3.24225ZM8.23044 21.3139L5.97531 19.0588L18.5089 6.52522L20.764 8.78034L8.23044 21.3139ZM21.7254 7.79341L16.2078 2.27577C16.9083 1.69792 17.7828 1.38088 18.7032 1.38088C19.7515 1.38088 20.7334 1.78997 21.4748 2.52634C22.2163 3.2627 22.6203 4.24964 22.6203 5.29794C22.6203 6.22351 22.3033 7.09284 21.7254 7.79341Z" fill="white"/>
</g>
<defs>
<clipPath id="clip0_68_840">
<rect width="24" height="24" fill="white" transform="translate(0.000976562)"/>
</clipPath>
</defs>
</svg>
