<svg width="40" height="40" viewBox="0 0 40 40" fill="none" xmlns="http://www.w3.org/2000/svg">
<path d="M26.6667 3.33331C24.1963 3.26478 21.7993 4.17744 20 5.87164C18.2008 4.17744 15.8038 3.26478 13.3334 3.33331C11.9341 3.33724 10.5529 3.64947 9.28803 4.24778C8.02315 4.84608 6.90564 5.71577 6.01502 6.79498C2.96002 10.46 2.73835 16.3333 4.19668 20.5966C4.21002 20.6266 4.22002 20.6566 4.23335 20.6866C6.91168 28.3333 18.2717 36.6666 20 36.6666C21.6983 36.6666 33.025 28.5166 35.7667 20.6866C35.78 20.6566 35.79 20.6266 35.8034 20.5966C37.2417 16.4016 37.0867 10.515 33.985 6.79498C33.0944 5.71577 31.9769 4.84608 30.712 4.24778C29.4471 3.64947 28.0659 3.33724 26.6667 3.33331ZM20 33.03C17.6817 31.5233 11.2317 27 8.30335 21.6666H15C15.2743 21.6667 15.5444 21.599 15.7863 21.4696C16.0282 21.3403 16.2344 21.1532 16.3867 20.925L17.83 18.7583L20.0867 25.525C20.1854 25.8207 20.3651 26.0829 20.6054 26.2816C20.8456 26.4803 21.1368 26.6076 21.4458 26.6491C21.7548 26.6906 22.0693 26.6446 22.3535 26.5163C22.6376 26.388 22.8801 26.1825 23.0533 25.9233L25.8917 21.6666H31.6984C28.7684 27 22.3183 31.5233 20 33.03ZM32.975 18.3333H25C24.7257 18.3333 24.4556 18.4009 24.2137 18.5303C23.9718 18.6597 23.7656 18.8468 23.6133 19.075L22.17 21.2416L19.9133 14.475C19.8146 14.1792 19.6349 13.9171 19.3947 13.7184C19.1544 13.5196 18.8632 13.3923 18.5542 13.3508C18.2452 13.3093 17.9307 13.3553 17.6466 13.4837C17.3624 13.612 17.1199 13.8174 16.9467 14.0766L14.1084 18.3333H7.02502C6.35835 15.1816 6.50502 11.4116 8.57668 8.92831C9.151 8.22081 9.87614 7.65057 10.6991 7.25927C11.5221 6.86797 12.4221 6.6655 13.3334 6.66664C18.445 6.66664 17.9117 10.1666 19.9817 10.1866H20C22.0733 10.1866 21.5483 6.66664 26.6667 6.66664C27.5785 6.665 28.4792 6.86723 29.3027 7.25855C30.1263 7.64987 30.852 8.22037 31.4267 8.92831C33.4867 11.4033 33.6467 15.1666 32.975 18.3333Z" fill="white"/>
</svg>
