<svg width="24" height="24" viewBox="0 0 24 24" fill="none" xmlns="http://www.w3.org/2000/svg">
<g clip-path="url(#clip0_32_6)">
<path d="M3.00003 24H21C21.2652 24 21.5196 23.8947 21.7071 23.7071C21.8947 23.5196 22 23.2652 22 23V12.415L22.292 12.707C22.4795 12.8947 22.7339 13.0001 22.9992 13.0002C23.2644 13.0003 23.5189 12.895 23.7065 12.7075C23.8942 12.52 23.9996 12.2656 23.9997 12.0004C23.9998 11.7351 23.8945 11.4807 23.707 11.293L12.707 0.293C12.516 0.112328 12.263 0.0116577 12 0.0116577C11.7371 0.0116577 11.4841 0.112328 11.293 0.293L0.293031 11.293C0.10556 11.4805 0.000244141 11.7349 0.000244141 12C0.000244141 12.2652 0.10556 12.5195 0.293031 12.707C0.483978 12.8879 0.737001 12.9887 1.00003 12.9887C1.26306 12.9887 1.51608 12.8879 1.70703 12.707L2.00003 12.414V23C2.00003 23.2652 2.10539 23.5196 2.29292 23.7071C2.48046 23.8947 2.73481 24 3.00003 24V24ZM14 22H10V18C10 17.4696 10.2107 16.9609 10.5858 16.5858C10.9609 16.2107 11.4696 16 12 16C12.5305 16 13.0392 16.2107 13.4142 16.5858C13.7893 16.9609 14 17.4696 14 18V22ZM12 2.414L20 10.414V22H16V18C16 16.9392 15.5786 15.9217 14.8285 15.1716C14.0783 14.4214 13.0609 14 12 14C10.9392 14 9.92175 14.4214 9.1716 15.1716C8.42146 15.9217 8.00003 16.9392 8.00003 18V22H4.00003V10.414L12 2.414Z" fill="#969BA0"/>
</g>
<defs>
<clipPath id="clip0_32_6">
<rect width="24" height="24" fill="white"/>
</clipPath>
</defs>
</svg>
