<svg width="24" height="24" viewBox="0 0 24 24" fill="none" xmlns="http://www.w3.org/2000/svg">
<g clip-path="url(#clip0_57_847)">
<path d="M21 0H3C2.20435 0 1.44129 0.31607 0.87868 0.87868C0.31607 1.44129 0 2.20435 0 3L0 10C0.00260366 10.7404 0.280648 11.4533 0.78 12C0.280648 12.5467 0.00260366 13.2596 0 14L0 21C0 21.7956 0.31607 22.5587 0.87868 23.1213C1.44129 23.6839 2.20435 24 3 24H21C21.7956 24 22.5587 23.6839 23.1213 23.1213C23.6839 22.5587 24 21.7956 24 21V14C23.9974 13.2596 23.7194 12.5467 23.22 12C23.7194 11.4533 23.9974 10.7404 24 10V3C24 2.20435 23.6839 1.44129 23.1213 0.87868C22.5587 0.31607 21.7956 0 21 0V0ZM2 3C2 2.73478 2.10536 2.48043 2.29289 2.29289C2.48043 2.10536 2.73478 2 3 2H21C21.2652 2 21.5196 2.10536 21.7071 2.29289C21.8946 2.48043 22 2.73478 22 3V10C22 10.2652 21.8946 10.5196 21.7071 10.7071C21.5196 10.8946 21.2652 11 21 11H3C2.73478 11 2.48043 10.8946 2.29289 10.7071C2.10536 10.5196 2 10.2652 2 10V3ZM22 21C22 21.2652 21.8946 21.5196 21.7071 21.7071C21.5196 21.8946 21.2652 22 21 22H3C2.73478 22 2.48043 21.8946 2.29289 21.7071C2.10536 21.5196 2 21.2652 2 21V14C2 13.7348 2.10536 13.4804 2.29289 13.2929C2.48043 13.1054 2.73478 13 3 13H21C21.2652 13 21.5196 13.1054 21.7071 13.2929C21.8946 13.4804 22 13.7348 22 14V21Z" fill="#969BA0"/>
<path d="M11 7.99999H13C13.7956 7.99999 14.5587 7.68392 15.1213 7.12132C15.6839 6.55871 16 5.79565 16 5C16 4.73478 15.8946 4.48043 15.7071 4.29289C15.5196 4.10536 15.2652 4 15 4C14.7348 4 14.4804 4.10536 14.2929 4.29289C14.1053 4.48043 14 4.73478 14 5C14 5.26521 13.8946 5.51957 13.7071 5.7071C13.5196 5.89464 13.2652 6 13 6H11C10.7348 6 10.4804 5.89464 10.2929 5.7071C10.1054 5.51957 10 5.26521 10 5C10 4.73478 9.89464 4.48043 9.7071 4.29289C9.51957 4.10536 9.26521 4 9 4C8.73478 4 8.48043 4.10536 8.29289 4.29289C8.10536 4.48043 8 4.73478 8 5C8 5.79565 8.31607 6.55871 8.87868 7.12132C9.44129 7.68392 10.2043 7.99999 11 7.99999Z" fill="#969BA0"/>
<path d="M15 15C14.7348 15 14.4804 15.1054 14.2929 15.2929C14.1053 15.4804 14 15.7348 14 16C14 16.2652 13.8946 16.5196 13.7071 16.7071C13.5196 16.8946 13.2652 17 13 17H11C10.7348 17 10.4804 16.8946 10.2929 16.7071C10.1054 16.5196 10 16.2652 10 16C10 15.7348 9.89464 15.4804 9.7071 15.2929C9.51957 15.1054 9.26521 15 9 15C8.73478 15 8.48043 15.1054 8.29289 15.2929C8.10536 15.4804 8 15.7348 8 16C8 16.7956 8.31607 17.5587 8.87868 18.1213C9.44129 18.6839 10.2043 19 11 19H13C13.7956 19 14.5587 18.6839 15.1213 18.1213C15.6839 17.5587 16 16.7956 16 16C16 15.7348 15.8946 15.4804 15.7071 15.2929C15.5196 15.1054 15.2652 15 15 15Z" fill="#969BA0"/>
</g>
<defs>
<clipPath id="clip0_57_847">
<rect width="24" height="24" fill="white"/>
</clipPath>
</defs>
</svg>
