<svg width="40" height="40" viewBox="0 0 40 40" fill="none" xmlns="http://www.w3.org/2000/svg">
<path d="M18.2186 37H20.6667V33.7747C26.7104 33.496 30.0001 29.7133 30.0001 25.413C30.0001 19.2412 24.7596 18.0865 20.6667 16.8919V10.7201C21.7378 11.1183 22.4645 12.0341 22.6175 13.5074H29.6175C29.2733 8.45051 25.9072 5.66325 20.6667 5.22526V2H18.2186V5.22526C13.0165 5.58362 9.00006 8.53015 9.00006 13.5074C9.00006 19.7588 14.1257 20.9534 18.2186 22.0683V28.3595C16.9181 27.9215 16.1531 26.9261 16.0001 25.2935H9.03831C9.22957 30.43 13.0165 33.2571 18.2186 33.7349V37ZM23.1531 25.6519C23.1531 27.1251 22.1968 28.2002 20.6667 28.479V22.8248C22.1585 23.4221 23.1531 24.2184 23.1531 25.6519ZM15.9236 13.1889C15.9236 11.636 16.8033 10.76 18.2186 10.521V16.0557C16.8416 15.4187 15.9236 14.5825 15.9236 13.1889Z" fill="white"/>
</svg>
