<svg width="24" height="24" viewBox="0 0 24 24" fill="none" xmlns="http://www.w3.org/2000/svg">
<g clip-path="url(#clip0_34_4)">
<path d="M17.086 1.22303C16.1553 1.22078 15.2343 1.41106 14.3807 1.78192C13.5271 2.15278 12.7595 2.6962 12.126 3.37803L12 3.51103L11.877 3.38203C11.2596 2.72028 10.5161 2.18857 9.69035 1.81813C8.86457 1.44768 7.9731 1.24596 7.06828 1.22482C6.16346 1.20367 5.26354 1.36352 4.42135 1.69499C3.57917 2.02645 2.8117 2.52285 2.16401 3.15503C0.772418 4.59625 -0.00682587 6.52049 -0.010182 8.5239C-0.0135381 10.5273 0.759255 12.4541 2.14601 13.9L9.57902 21.727C9.88905 22.0587 10.2639 22.3231 10.6804 22.5039C11.0968 22.6847 11.546 22.778 12 22.778C12.454 22.778 12.9032 22.6847 13.3197 22.5039C13.7361 22.3231 14.111 22.0587 14.421 21.727L21.854 13.9C23.2406 12.4543 24.0134 10.5278 24.0102 8.5246C24.0071 6.52143 23.2282 4.59733 21.837 3.15603C20.5657 1.91722 18.8611 1.22365 17.086 1.22303V1.22303ZM20.403 12.523L12.971 20.35C12.8454 20.4809 12.6946 20.585 12.5278 20.6561C12.3609 20.7272 12.1814 20.7639 12 20.7639C11.8186 20.7639 11.6391 20.7272 11.4723 20.6561C11.3054 20.585 11.1546 20.4809 11.029 20.35L3.60001 12.523C2.58581 11.4548 2.01671 10.0402 2.00854 8.56723C2.00037 7.09424 2.55372 5.67347 3.55601 4.59403C4.4542 3.71733 5.65889 3.22548 6.91401 3.22303C7.57299 3.22226 8.22498 3.35799 8.8289 3.62166C9.43283 3.88533 9.9756 4.27122 10.423 4.75503L11.275 5.65503C11.4676 5.84665 11.7283 5.95422 12 5.95422C12.2717 5.95422 12.5324 5.84665 12.725 5.65503L13.58 4.75503C14.0274 4.27232 14.5699 3.88739 15.1732 3.62443C15.7766 3.36147 16.4278 3.22617 17.086 3.22703C18.3428 3.22908 19.5491 3.72172 20.448 4.60003C21.448 5.67965 21.9996 7.09944 21.9907 8.57102C21.9818 10.0426 21.413 11.4556 20.4 12.523H20.403Z" fill="#969BA0"/>
</g>
<defs>
<clipPath id="clip0_34_4">
<rect width="24" height="24" fill="white"/>
</clipPath>
</defs>
</svg>
