<svg width="11" height="16" viewBox="0 0 11 16" fill="none" xmlns="http://www.w3.org/2000/svg">
<path d="M0.659141 6.68177H9.88629C10.0648 6.68177 10.2193 6.61659 10.3497 6.48612C10.48 6.35569 10.5455 6.20124 10.5455 6.02273C10.5455 5.84422 10.4801 5.68984 10.3497 5.55923L5.73612 0.945643C5.60577 0.815359 5.45135 0.75 5.27273 0.75C5.09411 0.75 4.9397 0.815359 4.80923 0.945643L0.195643 5.55923C0.0651783 5.6897 0 5.84422 0 6.02273C0 6.20121 0.0651783 6.35569 0.195643 6.48612C0.326252 6.61659 0.480667 6.68177 0.659141 6.68177Z" fill="#3E4954"/>
<path d="M9.88629 9.31836H0.659141C0.480523 9.31836 0.326108 9.38357 0.195643 9.51389C0.0651783 9.64436 0 9.79877 0 9.97728C0 10.1558 0.0651783 10.3103 0.195643 10.4407L4.80923 15.0542C4.93984 15.1847 5.09426 15.25 5.27273 15.25C5.45121 15.25 5.60577 15.1847 5.73612 15.0542L10.3497 10.4407C10.48 10.3103 10.5455 10.1558 10.5455 9.97725C10.5455 9.79877 10.4801 9.64436 10.3497 9.51386C10.2194 9.38343 10.0648 9.31836 9.88629 9.31836Z" fill="#D3D6E4"/>
</svg>
