<svg width="24" height="24" viewBox="0 0 24 24" fill="none" xmlns="http://www.w3.org/2000/svg">
<g clip-path="url(#clip0_30_26)">
<path d="M21.0001 24H3.00006C2.73484 24 2.48049 23.8946 2.29295 23.7071C2.10542 23.5196 2.00006 23.2652 2.00006 23V22.008C2.00293 20.4622 2.52027 18.9613 3.4705 17.742C4.42072 16.5227 5.74977 15.6544 7.24806 15.274C7.46051 15.2219 7.64965 15.1008 7.78577 14.9296C7.92188 14.7583 7.99726 14.5467 8.00006 14.328V13.322L6.88306 12.206C6.60326 11.9313 6.38105 11.6036 6.22944 11.2419C6.07782 10.8803 5.99984 10.4921 6.00006 10.1V5.96201C6.01839 4.41693 6.62828 2.93765 7.70421 1.82861C8.78014 0.719572 10.2403 0.0651427 11.7841 5.16174e-06C12.5993 -0.00104609 13.4068 0.158488 14.1604 0.469498C14.914 0.780509 15.5989 1.2369 16.1761 1.81263C16.7533 2.38835 17.2115 3.07213 17.5244 3.82491C17.8374 4.5777 17.999 5.38476 18.0001 6.20001V10.1C17.9998 10.4949 17.9204 10.8857 17.7667 11.2495C17.613 11.6132 17.388 11.9426 17.1051 12.218L16.0001 13.322V14.328C16.0029 14.5469 16.0784 14.7586 16.2148 14.9298C16.3511 15.1011 16.5404 15.2221 16.7531 15.274C18.2511 15.6548 19.5798 16.5232 20.5298 17.7424C21.4798 18.9617 21.9971 20.4624 22.0001 22.008V23C22.0001 23.2652 21.8947 23.5196 21.7072 23.7071C21.5196 23.8946 21.2653 24 21.0001 24ZM4.00006 22H20.0001C19.9954 20.8996 19.625 19.8319 18.947 18.9651C18.269 18.0983 17.322 17.4816 16.2551 17.212C15.6126 17.0494 15.0424 16.6779 14.6342 16.1558C14.2259 15.6337 14.0029 14.9907 14.0001 14.328V12.908C14.0001 12.6428 14.1055 12.3885 14.2931 12.201L15.7031 10.792C15.7966 10.7026 15.8711 10.5952 15.9222 10.4763C15.9732 10.3574 15.9997 10.2294 16.0001 10.1V6.20001C16.0017 5.09492 15.5671 4.03383 14.7908 3.24737C14.0145 2.46092 12.9591 2.01265 11.8541 2.00001C10.8265 2.04117 9.85385 2.47507 9.13677 3.21225C8.41968 3.94943 8.01281 4.93367 8.00006 5.96201V10.1C7.99985 10.2266 8.02496 10.352 8.0739 10.4688C8.12284 10.5856 8.19464 10.6914 8.28506 10.78L9.70706 12.2C9.89461 12.3875 10 12.6418 10.0001 12.907V14.327C9.9973 14.9896 9.77438 15.6325 9.36636 16.1545C8.95834 16.6766 8.38836 17.0482 7.74606 17.211C6.67878 17.4804 5.73143 18.0972 5.05324 18.9642C4.37504 19.8313 4.00453 20.8993 4.00006 22V22Z" fill="#969BA0"/>
</g>
<defs>
<clipPath id="clip0_30_26">
<rect width="24" height="24" fill="white"/>
</clipPath>
</defs>
</svg>
