<svg width="40" height="40" viewBox="0 0 40 40" fill="none" xmlns="http://www.w3.org/2000/svg">
<circle cx="20" cy="20" r="20" fill="#2BC155" fill-opacity="0.05"/>
<path d="M19.802 15.2876C17.3048 15.2876 15.2906 17.3023 15.2906 19.8C15.2906 22.2977 17.3048 24.3124 19.802 24.3124C22.2991 24.3124 24.3134 22.2977 24.3134 19.8C24.3134 17.3023 22.2991 15.2876 19.802 15.2876ZM19.802 22.7337C18.1882 22.7337 16.869 21.418 16.869 19.8C16.869 18.182 18.1843 16.8663 19.802 16.8663C21.4196 16.8663 22.735 18.182 22.735 19.8C22.735 21.418 21.4157 22.7337 19.802 22.7337ZM25.5502 15.103C25.5502 15.6882 25.079 16.1555 24.4979 16.1555C23.9129 16.1555 23.4456 15.6842 23.4456 15.103C23.4456 14.5218 23.9168 14.0505 24.4979 14.0505C25.079 14.0505 25.5502 14.5218 25.5502 15.103ZM28.5382 16.1712C28.4714 14.7613 28.1494 13.5125 27.1168 12.4835C26.0881 11.4546 24.8395 11.1325 23.4299 11.0619C21.9772 10.9794 17.6228 10.9794 16.1701 11.0619C14.7644 11.1286 13.5158 11.4507 12.4832 12.4796C11.4506 13.5085 11.1325 14.7574 11.0618 16.1673C10.9794 17.6204 10.9794 21.9757 11.0618 23.4288C11.1286 24.8387 11.4506 26.0875 12.4832 27.1165C13.5158 28.1454 14.7605 28.4675 16.1701 28.5381C17.6228 28.6206 21.9772 28.6206 23.4299 28.5381C24.8395 28.4714 26.0881 28.1493 27.1168 27.1165C28.1455 26.0875 28.4675 24.8387 28.5382 23.4288C28.6206 21.9757 28.6206 17.6243 28.5382 16.1712ZM26.6613 24.9879C26.3551 25.7576 25.7622 26.3507 24.9887 26.6609C23.8304 27.1204 21.082 27.0144 19.802 27.0144C18.522 27.0144 15.7696 27.1165 14.6152 26.6609C13.8456 26.3546 13.2528 25.7616 12.9426 24.9879C12.4832 23.8294 12.5892 21.0803 12.5892 19.8C12.5892 18.5197 12.4871 15.7667 12.9426 14.6121C13.2488 13.8424 13.8417 13.2493 14.6152 12.9391C15.7735 12.4796 18.522 12.5856 19.802 12.5856C21.082 12.5856 23.8344 12.4835 24.9887 12.9391C25.7583 13.2454 26.3512 13.8384 26.6613 14.6121C27.1207 15.7706 27.0147 18.5197 27.0147 19.8C27.0147 21.0803 27.1207 23.8333 26.6613 24.9879Z" fill="#2BC155"/>
</svg>
