<svg width="30" height="30" viewBox="0 0 30 30" fill="none" xmlns="http://www.w3.org/2000/svg">
<path d="M20 2.50006V5.00006H23.25L18.625 9.62506C17 8.25006 14.875 7.50006 12.5 7.50006C7 7.50006 2.5 12.0001 2.5 17.5001C2.5 23.0001 7 27.5001 12.5 27.5001C18 27.5001 22.5 23.0001 22.5 17.5001C22.5 15.1251 21.75 13.0001 20.375 11.3751L25 6.75006V10.0001H27.5V2.50006H20ZM12.5 25.0001C8.375 25.0001 5 21.6251 5 17.5001C5 13.3751 8.375 10.0001 12.5 10.0001C16.625 10.0001 20 13.3751 20 17.5001C20 21.6251 16.625 25.0001 12.5 25.0001Z" fill="#2BC155"/>
</svg>
