<svg width="54" height="54" viewBox="0 0 54 54" fill="none" xmlns="http://www.w3.org/2000/svg">
<circle cx="27" cy="27" r="26.5" stroke="#EDFDF1"/>
<g clip-path="url(#clip0_68_58)">
<path d="M38.5716 23.4285C38.5716 32.4285 27.0001 40.1428 27.0001 40.1428C27.0001 40.1428 15.4287 32.4285 15.4287 23.4285C15.4287 20.3596 16.6478 17.4164 18.8179 15.2463C20.988 13.0762 23.9312 11.8571 27.0001 11.8571C30.0691 11.8571 33.0123 13.0762 35.1824 15.2463C37.3524 17.4164 38.5716 20.3596 38.5716 23.4285Z" stroke="#2BC155" stroke-width="3" stroke-linecap="round" stroke-linejoin="round"/>
<path d="M27.0002 27.2857C29.1305 27.2857 30.8574 25.5588 30.8574 23.4286C30.8574 21.2983 29.1305 19.5714 27.0002 19.5714C24.87 19.5714 23.1431 21.2983 23.1431 23.4286C23.1431 25.5588 24.87 27.2857 27.0002 27.2857Z" stroke="#2BC155" stroke-width="3" stroke-linecap="round" stroke-linejoin="round"/>
</g>
<defs>
<clipPath id="clip0_68_58">
<rect width="30.8571" height="30.8571" fill="white" transform="translate(11.5715 10.5714)"/>
</clipPath>
</defs>
</svg>
