<?xml version="1.0" standalone="no"?>
<!DOCTYPE svg PUBLIC "-//W3C//DTD SVG 20010904//EN"
 "http://www.w3.org/TR/2001/REC-SVG-20010904/DTD/svg10.dtd">
<svg version="1.0" xmlns="http://www.w3.org/2000/svg"
 width="353.000000pt" height="340.000000pt" viewBox="0 0 353.000000 340.000000"
 preserveAspectRatio="xMidYMid meet">

<g transform="translate(0.000000,340.000000) scale(0.100000,-0.100000)"
fill="#000000" stroke="none">
<path d="M1605 3244 c-398 -57 -767 -255 -1003 -539 -100 -118 -103 -125 -34
-65 220 193 415 304 622 355 88 21 386 31 517 16 383 -42 783 -330 972 -701
101 -200 132 -318 138 -535 9 -277 -21 -427 -128 -640 -227 -456 -677 -738
-1179 -739 -80 0 -179 6 -220 13 -248 44 -540 193 -716 367 -69 68 -72 70 -42
26 45 -65 198 -222 287 -293 360 -291 833 -397 1301 -293 590 132 1055 620
1166 1224 24 128 24 399 1 527 -91 492 -393 901 -826 1118 -117 58 -298 119
-416 140 -87 15 -380 28 -440 19z"/>
<path d="M1355 2879 c-317 -43 -603 -211 -793 -464 -62 -83 -151 -259 -187
-370 -18 -53 -30 -123 -37 -207 -27 -298 33 -542 191 -783 56 -86 183 -220
271 -286 87 -66 283 -162 400 -196 90 -27 105 -28 300 -28 231 0 259 5 442 79
119 48 257 132 333 202 l50 45 -48 -31 c-57 -38 -232 -122 -299 -144 -121 -40
-439 -46 -573 -11 -281 74 -553 298 -681 560 -78 162 -107 288 -107 470 1 264
76 467 253 681 147 177 348 297 585 351 99 23 346 22 440 -1 132 -32 284 -97
380 -163 l50 -34 -54 51 c-54 52 -123 94 -135 83 -3 -4 -6 0 -6 8 0 34 -182
118 -355 164 -114 30 -299 41 -420 24z m664 -130 c17 -6 31 -15 31 -19 0 -11
-58 8 -66 21 -7 12 -4 11 35 -2z m141 -1998 c0 -5 -7 -12 -16 -15 -14 -5 -15
-4 -4 9 14 17 20 19 20 6z m-100 -56 c-7 -8 -18 -15 -24 -15 -6 0 -2 7 8 15
25 19 32 19 16 0z"/>
<path d="M1440 2165 l0 -245 -245 0 -245 0 0 -205 0 -205 245 0 245 0 2 -247
3 -248 205 0 205 0 3 248 2 247 240 0 240 0 0 205 0 205 -240 0 -240 0 0 245
0 245 -210 0 -210 0 0 -245z m880 -450 l0 -195 -186 0 -186 0 7 183 c4 100 9
184 11 186 2 2 77 7 166 11 90 4 169 8 176 8 9 2 12 -43 12 -193z"/>
</g>
</svg>
