<svg id="svg11425" height="512" viewBox="0 0 16.933333 16.933334" width="512" xmlns="http://www.w3.org/2000/svg" xmlns:svg="http://www.w3.org/2000/svg"><g id="layer1" transform="translate(0 -280.067)"><path id="path4275" d="m9.524999 283.77081c0-1.75037-1.424631-3.175-3.1750003-3.175-1.7503722 0-3.175 1.42463-3.175 3.175 0 .0887.0031.17839.00878.26924.015531.35901.556813.32568.5281348-.0326-.005-.0806-.00826-.15968-.00826-.23668 0-1.46437 1.181444-2.64583 2.6458334-2.64583 1.4643891 0 2.6458331 1.18144 2.6458331 2.64583 0 .32754-.04478.68442-.129193 1.05472-.04431.005-.09233.0127-.135909.0243v-.28526c.000529-.14616-.117377-.26509-.263549-.26561h-.529157c-.5983738 0-.8087361-.61133-.8087361-.61133-.037129-.11289-.1448435-.18692-.2635488-.18139-.1093602.005-.2040308.0774-.2382282.18139 0 0-.2112459.61133-.8066696.61133h-1.5880186c-.1461823.00053-.2641229.11945-.263562.26561v.28319c-.5290688-.1287-1.0583334.24276-1.0583334.77101 0 .77375.5445919 1.25785 1.1914056 1.31982.1340114.38464.3640905.72255.6606884.98805v1.40095c-.0000503.0284.0045.0567.013441.0837.2464409.60808.8259075.97461 1.5745804.97461.748673 0 1.3309703-.36889 1.5740643-.97461.0091-.027.01384-.0553.01394-.0837v-1.39991c.296625-.2651.527349-.603.66094-.98754.611375-.0621 1.190109-.52963 1.190109-1.32163-.01-.30545-.179922-.54289-.40618-.67566.09098-.39974.141591-.79692.141591-1.17203zm2.11615-1.85156v.26355h-.263551c-.435161 0-.794782.36014-.794782.7953v1.85105c0 1.51867 1.162566 2.76348 2.646349 2.89698v3.71864c0 .44429-.348403.79271-.792716.79271h-.279053c-.135334-1.77668-1.614522-3.175-3.426147-3.175-.357643-.005-.357643.53407 0 .52917 1.527576 0 2.764702 1.15485 2.89698 2.64583h-2.670637c-.118433-.45391-.529275-.79271-1.019059-.79271-.5813687 0-1.0588517.47489-1.0588517 1.05626s.477483 1.05885 1.0588517 1.05885c.489339 0 .899681-.33951 1.018543-.79323h3.479373c.728319 0 1.322399-.59358 1.322399-1.32188v-3.71864c1.482976-.13448 2.646351-1.37903 2.646351-2.89698v-1.85105c0-.43516-.36014-.7953-.7953-.7953h-.263551v-.26355c0-.36005-.529167-.35826-.529167 0v1.05885c.0076.34506.521536.34506.529167 0v-.26562h.263551c.151154 0 .266134.11448.266134.26562v1.85105c0 1.32379-1.059529 2.38125-2.383319 2.38125-1.323787 0-2.380732-1.05746-2.380732-2.38125v-1.85105c0-.15114.114462-.26562.265616-.26562h.263551v.26562c0 .35312.529683.35312.529683 0v-1.05885c0-.35038-.529683-.36324-.529683 0zm-4.7614677 2.3828c.1681983.2263.5075158.52606 1.0583337.52606h.263551v1.32447c-.000008 1.03063-.8209305 1.85157-1.8515673 1.85157-1.0306262 0-1.8515674-.82094-1.8515674-1.85157v-1.32447h1.3224007c.5516642 0 .8688891-.28778 1.0588493-.52606zm1.8401987 2.07584c.02103-.30648.01085-.61744.01085-.93586.196802-.20313.528658-.0287.527618.18707-.0019.3983-.242615.66188-.538466.74879zm-4.7392383 0c-.2958465-.0869-.5384668-.35193-.5384668-.74879 0-.26115.3692367-.36394.5270924-.1881-.00185.30549-.0046.64672.011377.93689zm1.3110237 1.90841c.3186853.15796.6780186.24701 1.0583333.24701.3806455 0 .7397353-.0892 1.0588493-.24701v.97668s-.2199217.59377-1.0583334.59377c-.8384116 0-1.0588492-.59377-1.0588492-.59377zm-1.3229167.77618c-1.9009546 0-3.4395834 1.53864-3.4395834 3.43958v3.70417c.0000158.14612.1184645.26457.2645833.26458h1.8603516 7.4083328 1.843815c.146119-.00001.264568-.11846.264584-.26458v-2.64583c.005-.35779-.534213-.35779-.529167 0v.79426h-1.322401v-.79478c0-.37452-.529166-.34462-.529166 0v2.38177h-6.8791667v-2.38177c0-.35698-.5291667-.35777-.5291667 0v.79478h-1.3234326v-1.8526c0-1.61693 1.2934712-2.91041 2.9104167-2.91041.3576426.005.3576426-.53407 0-.52917zm3.9697843 2.90938c.295384 0 .529167.23378.529167.52917 0 .29538-.233783.52968-.529167.52968-.295386 0-.529685-.2343-.529685-.52968 0-.29539.234299-.52917.529685-.52917zm-6.880201 2.91249h1.3234326v1.0573h-1.3234326zm9.260932 0h1.322401v1.0573h-1.322401z" font-variant-ligatures="normal" font-variant-position="normal" font-variant-caps="normal" font-variant-numeric="normal" font-variant-alternates="normal" font-feature-settings="normal" text-indent="0" text-align="start" text-decoration-line="none" text-decoration-style="solid" text-decoration-color="rgb(0,0,0)" text-transform="none" text-orientation="mixed" white-space="normal" shape-padding="0" isolation="auto" mix-blend-mode="normal" solid-color="rgb(0,0,0)" solid-opacity="1" vector-effect="none"/></g></svg>