<svg width="31" height="31" viewBox="0 0 31 31" fill="none" xmlns="http://www.w3.org/2000/svg">
<path d="M28.2881 21.7563V25.6138C28.2896 25.9719 28.2162 26.3264 28.0728 26.6545C27.9293 26.9826 27.7189 27.2771 27.455 27.5192C27.1911 27.7613 26.8796 27.9456 26.5404 28.0604C26.2011 28.1751 25.8417 28.2177 25.485 28.1855C21.5283 27.7555 17.7276 26.4035 14.3883 24.238C11.2815 22.2638 8.64746 19.6297 6.67328 16.523C4.50019 13.1685 3.14783 9.34928 2.72577 5.37477C2.69364 5.0192 2.73589 4.66083 2.84985 4.32248C2.96381 3.98413 3.14697 3.67322 3.38767 3.40953C3.62837 3.14585 3.92134 2.93517 4.24793 2.79092C4.57451 2.64667 4.92755 2.57199 5.28458 2.57166H9.14208C9.7661 2.56552 10.3711 2.78649 10.8442 3.1934C11.3174 3.60031 11.6264 4.16538 11.7137 4.78329C11.8766 6.01778 12.1785 7.22988 12.6138 8.39648C12.7868 8.85671 12.8243 9.35689 12.7217 9.83775C12.6192 10.3186 12.3809 10.76 12.0352 11.1096L10.4022 12.7426C12.2326 15.9617 14.8981 18.6271 18.1172 20.4576L19.7502 18.8246C20.0998 18.4789 20.5412 18.2406 21.022 18.1381C21.5029 18.0355 22.0031 18.073 22.4633 18.246C23.6299 18.6813 24.842 18.9832 26.0765 19.1461C26.7011 19.2342 27.2716 19.5488 27.6793 20.0301C28.0871 20.5113 28.3038 21.1257 28.2881 21.7563Z" stroke="#2BC155" stroke-width="3" stroke-linecap="round" stroke-linejoin="round"/>
</svg>
