<svg id="Layer_2" height="512" viewBox="0 0 64 64" width="512" xmlns="http://www.w3.org/2000/svg" data-name="Layer 2"><path d="m42.67 35.98c-.07-.34.05-.69.3-.92l6.18-5.77c.86-.8 1.17-2 .81-3.12s-1.32-1.91-2.49-2.05l-8.39-1.03c-.34-.04-.64-.26-.79-.57l-3.57-7.66c-.5-1.07-1.54-1.73-2.72-1.73s-2.22.66-2.72 1.73l-3.57 7.66c-.15.31-.44.53-.78.57l-8.39 1.03c-1.17.14-2.12.93-2.49 2.05-.36 1.12-.06 2.32.81 3.12l6.19 5.77c.25.24.37.58.3.92l-1.61 8.3c-.23 1.16.23 2.31 1.18 3 .53.38 1.14.58 1.76.58.5 0 1-.13 1.46-.38l7.4-4.1c.3-.17.67-.17.97 0l7.4 4.1c1.03.57 2.26.5 3.22-.2.95-.69 1.41-1.84 1.18-3l-1.61-8.3zm-.74 9.68c-.12.09-.55.35-1.07.06l-7.4-4.1c-.91-.5-2-.5-2.91 0l-7.4 4.1c-.52.29-.95.02-1.07-.07s-.51-.42-.39-1l1.61-8.3c.2-1.02-.14-2.06-.9-2.77l-6.19-5.77c-.43-.4-.32-.9-.27-1.04s.24-.61.83-.68l8.39-1.03c1.03-.13 1.91-.77 2.35-1.71l3.57-7.66c.25-.54.76-.58.91-.58s.66.04.91.58l3.57 7.67c.44.94 1.32 1.58 2.35 1.71l8.39 1.03c.59.07.78.54.83.68s.16.64-.27 1.04l-6.18 5.77c-.76.71-1.1 1.74-.9 2.77l1.61 8.3c.11.58-.27.91-.39 1z"/><path d="m61.28 28.66-6.13-2.06c-.17-.06-.3-.2-.35-.38l-1.5-6.29c-.23-.97-.98-1.69-1.95-1.89s-1.95.17-2.54.97l-1.62 2.18c-.33.44-.24 1.07.21 1.4.44.33 1.07.24 1.4-.21l1.62-2.18c.18-.24.43-.22.53-.2s.34.1.41.4l1.5 6.29c.2.85.82 1.53 1.65 1.81l6.13 2.06c.29.1.35.34.36.44s0 .35-.25.51l-5.52 3.37c-.75.46-1.2 1.25-1.21 2.13l-.07 6.46c0 .3-.22.44-.31.48s-.33.12-.56-.08l-4.91-4.21c-.67-.57-1.57-.76-2.46-.47l.29.96.37.93c.17-.05.36-.02.5.1l4.91 4.21c.47.4 1.05.61 1.64.61.35 0 .71-.08 1.05-.23.9-.41 1.47-1.28 1.48-2.28l.07-6.46c0-.18.1-.35.25-.45l5.52-3.37c.85-.52 1.31-1.45 1.2-2.44s-.77-1.8-1.71-2.11z"/><path d="m18.23 39.17c-.83-.26-1.74-.08-2.4.49l-4.91 4.21c-.23.2-.47.12-.56.08s-.31-.17-.31-.48l-.07-6.46c0-.88-.46-1.67-1.21-2.13l-5.52-3.37c-.26-.16-.26-.41-.25-.51s.07-.35.36-.44l6.13-2.06c.83-.28 1.45-.96 1.65-1.81l1.5-6.29c.07-.3.31-.38.41-.4s.35-.04.53.2l1.62 2.18c.33.44.95.54 1.4.21.44-.33.54-.96.21-1.4l-1.62-2.18c-.59-.8-1.56-1.17-2.54-.97-.97.2-1.72.92-1.95 1.89l-1.5 6.29c-.04.18-.17.32-.35.38l-6.13 2.06c-.94.32-1.6 1.13-1.71 2.11-.11.99.35 1.92 1.2 2.44l5.52 3.37c.16.1.25.26.25.45l.07 6.46c.01.99.58 1.87 1.48 2.28.34.15.7.23 1.05.23.59 0 1.17-.21 1.64-.61l4.91-4.21c.14-.12.33-.16.57-.08.53.16 1.05-.14 1.22-.67.16-.53-.16-1.1-.69-1.26z"/></svg>