<svg width="28" height="28" viewBox="0 0 28 28" fill="none" xmlns="http://www.w3.org/2000/svg">
<path d="M22.4604 3.84888H5.31682C4.64742 3.84961 4.00565 4.11586 3.53231 4.58919C3.05897 5.06253 2.79273 5.7043 2.79199 6.3737V18.1562C2.79273 18.8256 3.05897 19.4674 3.53231 19.9407C4.00565 20.4141 4.64742 20.6803 5.31682 20.6811C5.53999 20.6812 5.75398 20.7699 5.91178 20.9277C6.06958 21.0855 6.15829 21.2995 6.15843 21.5227V23.3168C6.15843 23.6215 6.24112 23.9204 6.39768 24.1818C6.55423 24.4431 6.77879 24.6571 7.04741 24.8009C7.31602 24.9446 7.61861 25.0128 7.92292 24.9981C8.22723 24.9834 8.52183 24.8863 8.77533 24.7173L14.6173 20.8224C14.7554 20.7299 14.9179 20.6807 15.0841 20.6811H19.187C19.7383 20.68 20.2742 20.4994 20.7136 20.1664C21.1531 19.8335 21.472 19.3664 21.6222 18.8359L24.8965 7.05011C24.9998 6.67481 25.0152 6.28074 24.9413 5.89856C24.8674 5.51637 24.7064 5.15639 24.4707 4.84663C24.2349 4.53687 23.9309 4.28568 23.5822 4.11263C23.2336 3.93957 22.8497 3.84931 22.4604 3.84888ZM23.2732 6.60304L20.0005 18.3847C19.9499 18.5614 19.8432 18.7168 19.6964 18.8275C19.5496 18.9381 19.3708 18.9979 19.187 18.9978H15.0841C14.5855 18.9972 14.098 19.1448 13.6836 19.4219L7.84165 23.3168V21.5227C7.84091 20.8533 7.57467 20.2115 7.10133 19.7382C6.62799 19.2648 5.98622 18.9986 5.31682 18.9978C5.09365 18.9977 4.87966 18.909 4.72186 18.7512C4.56406 18.5934 4.47534 18.3794 4.47521 18.1562V6.3737C4.47534 6.15054 4.56406 5.93655 4.72186 5.77874C4.87966 5.62094 5.09365 5.53223 5.31682 5.5321H22.4604C22.5905 5.53243 22.7187 5.56277 22.8352 5.62076C22.9516 5.67875 23.0531 5.76283 23.1318 5.86646C23.2104 5.97008 23.2641 6.09045 23.2886 6.21821C23.3132 6.34597 23.3079 6.47766 23.2732 6.60304Z" fill="#04A547"/>
<path d="M7.84161 11.4233H12.0497C12.2729 11.4233 12.4869 11.3347 12.6448 11.1768C12.8026 11.019 12.8913 10.8049 12.8913 10.5817C12.8913 10.3585 12.8026 10.1444 12.6448 9.98661C12.4869 9.82878 12.2729 9.74011 12.0497 9.74011H7.84161C7.6184 9.74011 7.40433 9.82878 7.2465 9.98661C7.08867 10.1444 7 10.3585 7 10.5817C7 10.8049 7.08867 11.019 7.2465 11.1768C7.40433 11.3347 7.6184 11.4233 7.84161 11.4233Z" fill="#04A547"/>
<path d="M15.4161 13.1066H7.84161C7.6184 13.1066 7.40433 13.1952 7.2465 13.3531C7.08867 13.5109 7 13.725 7 13.9482C7 14.1714 7.08867 14.3855 7.2465 14.5433C7.40433 14.7011 7.6184 14.7898 7.84161 14.7898H15.4161C15.6393 14.7898 15.8534 14.7011 16.0112 14.5433C16.169 14.3855 16.2577 14.1714 16.2577 13.9482C16.2577 13.725 16.169 13.5109 16.0112 13.3531C15.8534 13.1952 15.6393 13.1066 15.4161 13.1066Z" fill="#04A547"/>
</svg>
