<svg width="24" height="24" viewBox="0 0 24 24" fill="none" xmlns="http://www.w3.org/2000/svg">
<path d="M23.7871 22.7761L17.9547 16.9437C19.5192 15.145 20.4665 12.7982 20.4665 10.2333C20.4665 4.58714 15.874 0 10.2332 0C4.58708 0 -6.10352e-05 4.59246 -6.10352e-05 10.2333C-6.10352e-05 15.8741 4.5924 20.4665 10.2332 20.4665C12.7982 20.4665 15.145 19.5193 16.9436 17.9548L22.776 23.7871C22.9144 23.9255 23.1006 24 23.2815 24C23.4625 24 23.6487 23.9308 23.7871 23.7871C24.0638 23.5104 24.0638 23.0528 23.7871 22.7761ZM1.43142 10.2333C1.43142 5.38004 5.37998 1.43681 10.2279 1.43681C15.0811 1.43681 19.0243 5.38537 19.0243 10.2333C19.0243 15.0812 15.0811 19.035 10.2279 19.035C5.37998 19.035 1.43142 15.0865 1.43142 10.2333Z" fill="#A4A4A4"/>
</svg>
