<svg width="40" height="40" viewBox="0 0 40 40" fill="none" xmlns="http://www.w3.org/2000/svg">
<path d="M38.3333 16.6666C38.3383 15.7488 38.0906 14.8473 37.6174 14.061C37.1441 13.2746 36.4635 12.6336 35.6501 12.2084C34.8368 11.7831 33.9221 11.5899 33.0062 11.65C32.0904 11.7101 31.2087 12.021 30.4579 12.5489C29.707 13.0767 29.1159 13.8011 28.7494 14.6425C28.3829 15.484 28.255 16.4101 28.3799 17.3194C28.5047 18.2287 28.8774 19.086 29.4572 19.7976C30.0369 20.5091 30.8013 21.0473 31.6667 21.3533V26.6666C31.6667 28.8768 30.7887 30.9964 29.2259 32.5592C27.6631 34.122 25.5435 35 23.3333 35C21.1232 35 19.0036 34.122 17.4408 32.5592C15.878 30.9964 15 28.8768 15 26.6666V24.8666C17.7735 24.4642 20.3097 23.0777 22.1456 20.9603C23.9815 18.8429 24.9946 16.1358 25 13.3333V3.33329C25 2.89127 24.8244 2.46734 24.5118 2.15478C24.1993 1.84222 23.7754 1.66663 23.3333 1.66663H18.3333C17.8913 1.66663 17.4674 1.84222 17.1548 2.15478C16.8423 2.46734 16.6667 2.89127 16.6667 3.33329C16.6667 3.77532 16.8423 4.19924 17.1548 4.5118C17.4674 4.82436 17.8913 4.99996 18.3333 4.99996H21.6667V13.3333C21.6667 15.5434 20.7887 17.663 19.2259 19.2258C17.6631 20.7887 15.5435 21.6666 13.3333 21.6666C11.1232 21.6666 9.00358 20.7887 7.44077 19.2258C5.87797 17.663 5 15.5434 5 13.3333V4.99996H8.33333C8.77536 4.99996 9.19928 4.82436 9.51184 4.5118C9.8244 4.19924 10 3.77532 10 3.33329C10 2.89127 9.8244 2.46734 9.51184 2.15478C9.19928 1.84222 8.77536 1.66663 8.33333 1.66663H3.33333C2.8913 1.66663 2.46738 1.84222 2.15482 2.15478C1.84226 2.46734 1.66666 2.89127 1.66666 3.33329V13.3333C1.67202 16.1358 2.68515 18.8429 4.52106 20.9603C6.35697 23.0777 8.8932 24.4642 11.6667 24.8666V26.6666C11.6667 29.7608 12.8958 32.7283 15.0837 34.9162C17.2717 37.1041 20.2391 38.3333 23.3333 38.3333C26.4275 38.3333 29.395 37.1041 31.5829 34.9162C33.7708 32.7283 35 29.7608 35 26.6666V21.3533C35.9723 21.0131 36.8151 20.3797 37.4122 19.5402C38.0092 18.7008 38.3311 17.6967 38.3333 16.6666Z" fill="white"/>
</svg>
