<svg width="40" height="40" viewBox="0 0 40 40" fill="none" xmlns="http://www.w3.org/2000/svg">
<circle cx="20" cy="20" r="20" fill="#2BC155" fill-opacity="0.05"/>
<path d="M26.7908 15.8863C26.802 16.0568 26.802 16.2274 26.802 16.398C26.802 21.6 23.1726 27.5939 16.5391 27.5939C14.4954 27.5939 12.597 26.9482 11 25.8274C11.2904 25.8639 11.5695 25.8761 11.8711 25.8761C13.5573 25.8761 15.1096 25.2548 16.3492 24.1949C14.7634 24.1584 13.4345 23.0254 12.9766 21.466C13.2 21.5025 13.4233 21.5269 13.6579 21.5269C13.9817 21.5269 14.3056 21.4781 14.6071 21.3929C12.9543 21.0274 11.7147 19.4436 11.7147 17.531V17.4822C12.1949 17.7746 12.7533 17.9574 13.3451 17.9817C12.3736 17.2751 11.737 16.069 11.737 14.7045C11.737 13.9736 11.9157 13.3035 12.2284 12.7188C14.004 15.1066 16.6731 16.6659 19.6659 16.8365C19.6101 16.5441 19.5766 16.2396 19.5766 15.935C19.5766 13.7665 21.1847 12 23.1837 12C24.2223 12 25.1603 12.4751 25.8192 13.2426C26.6344 13.0721 27.4162 12.7431 28.1086 12.2924C27.8405 13.2061 27.271 13.9736 26.5228 14.4609C27.2487 14.3757 27.9522 14.1563 28.5999 13.8518C28.1086 14.6315 27.4944 15.3258 26.7908 15.8863Z" fill="#2BC155"/>
</svg>
