<svg id="Layer_1" enable-background="new 0 0 450 450" height="512" viewBox="0 0 450 450" width="512" xmlns="http://www.w3.org/2000/svg"><g><g><g><g><path clip-rule="evenodd" d="m286.1 341.5h-183.9c-9.9 0-17.9-8-17.9-17.9v-169.8c0-.2 0-.3 0-.5.1-3.2 2.7-5.7 5.9-5.6s5.7 2.7 5.6 5.9v.3 169.7c0 3.5 2.9 6.4 6.4 6.4h183.9c.3 0 .7 0 1-.1 3.1-.5 6.1 1.7 6.6 4.8s-1.7 6.1-4.8 6.6c-1 .1-1.9.2-2.8.2z" fill="rgb(0,0,0)" fill-rule="evenodd"/></g><g><path clip-rule="evenodd" d="m298.2 210.3c-3.2 0-5.8-2.6-5.8-5.8v-50.7c0-.1 0-.2 0-.2-.1-3.2 2.5-5.8 5.6-5.9h.1c3.1 0 5.7 2.5 5.8 5.6v.5 50.7c.1 3.2-2.5 5.8-5.7 5.8z" fill="rgb(0,0,0)" fill-rule="evenodd"/></g><g><path clip-rule="evenodd" d="m341.5 198.7c-1.4 0-2.8-.5-3.9-1.5l-139.2-126.9c-2.5-2.2-6.2-2.2-8.6 0l-139.2 126.9c-2.4 2.1-6 2-8.1-.4s-2-6 .4-8.1l139.1-126.9c3.3-3 7.6-4.7 12.1-4.7s8.8 1.7 12.1 4.7l139.2 126.9c2.4 2.1 2.5 5.8.4 8.1-1.2 1.3-2.7 1.9-4.3 1.9z" fill="rgb(0,0,0)" fill-rule="evenodd"/></g><g><path clip-rule="evenodd" d="m221.3 341.5h-54.5c-3.2 0-5.8-2.6-5.8-5.8v-71.9c0-18.2 14.8-33 33-33s33 14.8 33 33v71.9c.1 3.2-2.5 5.8-5.7 5.8zm-48.7-11.5h42.9v-66.2c0-11.8-9.6-21.5-21.5-21.5s-21.5 9.6-21.5 21.5z" fill="rgb(0,0,0)" fill-rule="evenodd"/></g><g><path clip-rule="evenodd" d="m194.1 205.8c-19.3 0-34.9-15.7-34.9-34.9s15.7-34.9 34.9-34.9 34.9 15.7 34.9 34.9-15.6 34.9-34.9 34.9zm0-58.3c-12.9 0-23.4 10.5-23.4 23.4s10.5 23.4 23.4 23.4 23.4-10.5 23.4-23.4-10.5-23.4-23.4-23.4z" fill="rgb(0,0,0)" fill-rule="evenodd"/></g><g><path clip-rule="evenodd" d="m324.7 344.7c-1.9 0-3.8-1-4.9-2.7-1.7-2.7-.9-6.2 1.8-7.9l21.3-13.4c2-1.2 3.3-3.2 3.8-5.4.5-2.3.1-4.6-1.1-6.5-2.5-4-7.9-5.2-11.9-2.7l-11.8 7.4c-3.3 2.1-7.1 3.1-10.7 3.1-6.7 0-13.3-3.3-17.1-9.4-2.9-4.6-3.8-9.9-2.6-15.2s4.3-9.7 8.9-12.6l21.3-13.4c2.7-1.7 6.2-.9 7.9 1.8s.9 6.2-1.8 7.9l-21.3 13.4c-2 1.2-3.3 3.2-3.8 5.4-.5 2.3-.1 4.6 1.1 6.5 2.6 4 7.9 5.2 11.9 2.7l11.8-7.4c9.4-5.9 21.9-3.1 27.8 6.3s3.1 21.9-6.3 27.8l-21.3 13.4c-.9.6-2 .9-3 .9z" fill="rgb(0,0,0)" fill-rule="evenodd"/></g><g><path clip-rule="evenodd" d="m348 347.6c-1.9 0-3.8-1-4.9-2.7l-46.7-73.9c-1.7-2.7-.9-6.2 1.8-7.9s6.2-.9 7.9 1.8l46.7 73.9c1.7 2.7.9 6.2-1.8 7.9-.9.6-2 .9-3 .9z" fill="rgb(0,0,0)" fill-rule="evenodd"/></g><g><path clip-rule="evenodd" d="m321.5 394.4c-1.9 0-3.8-1-4.9-2.7l-78.8-124.7c-.8-1.2-1.1-2.7-.8-4.1l13.1-71c.3-1.6 1.2-3 2.6-3.8 1.4-.9 3-1.1 4.6-.7l69.2 19c1.4.4 2.6 1.3 3.3 2.5l78.8 124.7c.8 1.3 1.1 2.9.7 4.3s-1.3 2.8-2.5 3.6l-82.4 52c-.8.6-1.9.9-2.9.9zm-72.7-131.6 74.5 117.9 72.6-45.9-74.5-117.9-61-16.7z" fill="rgb(0,0,0)" fill-rule="evenodd"/></g><g><path clip-rule="evenodd" d="m284.2 256.8c-9.4 0-17.1-7.7-17.1-17.1s7.7-17.1 17.1-17.1 17.1 7.7 17.1 17.1-7.7 17.1-17.1 17.1zm0-22.7c-3.1 0-5.6 2.5-5.6 5.6s2.5 5.6 5.6 5.6 5.6-2.5 5.6-5.6-2.5-5.6-5.6-5.6z" fill="rgb(0,0,0)" fill-rule="evenodd"/></g><g><path clip-rule="evenodd" d="m272.9 243.7c-.4 0-.8 0-1.2-.1-18.8-3.9-53-14.9-71.3-45.2-4.9-8.1-5.5-18.1-1.7-26.8 3.8-8.6 11.6-14.9 20.8-16.7.3-.1.6-.1.9-.2 3.1-.5 6.1 1.6 6.7 4.7s-1.6 6.1-4.7 6.7c-.2 0-.4.1-.6.1-5.6 1.1-10.2 4.8-12.5 10.1-2.4 5.3-2 11.2 1 16.2 16.1 26.6 46.9 36.4 63.8 39.9 3.1.6 5.1 3.7 4.5 6.8-.6 2.6-3 4.5-5.7 4.5z" fill="rgb(0,0,0)" fill-rule="evenodd"/></g><g><path clip-rule="evenodd" d="m313.8 214.6c-.8 0-1.7-.2-2.5-.6-2.9-1.4-4.1-4.8-2.7-7.7 6.3-13.2-13.5-26.9-13.7-27.1-2.6-1.8-3.3-5.4-1.5-8s5.4-3.3 8-1.5c.3.2 6.8 4.7 12.3 11.7 7.9 10.1 9.8 20.5 5.3 29.9-.9 2.1-3 3.3-5.2 3.3z" fill="rgb(0,0,0)" fill-rule="evenodd"/></g></g></g></g></svg>