<svg id="Layer_1" enable-background="new 0 0 64 64" height="64" viewBox="0 0 64 64" width="64" xmlns="http://www.w3.org/2000/svg"><g fill="#010101"><path d="m63.353 45.768-3.781-2.83v-5.871c0-.535-.434-.969-.971-.969h-5.141c-.535 0-.971.434-.971.969v.572l-4.402-3.295c-.344-.258-.814-.26-1.158-.002l-6.404 4.752v-28.949c0-1.6-1.301-2.9-2.898-2.9h-2.273c-.004 0-.008 0-.01 0-.004 0-.006 0-.01 0h-4.566c-.041-1.902-1.596-3.441-3.51-3.441h-2.25c-.45-2.169-2.378-3.804-4.679-3.804-2.299 0-4.225 1.635-4.674 3.803h-2.131c-1.914 0-3.469 1.539-3.51 3.441h-4.56c-.004 0-.006 0-.01 0s-.006 0-.01 0h-2.279c-1.598 0-2.898 1.301-2.898 2.9v42.436c0 1.598 1.301 2.898 2.898 2.898h30.861v7.551c0 .537.436.971.971.971h24.91c.535 0 .969-.434.969-.971v-15.515h1.904c.418 0 .789-.268.922-.664.131-.397-.005-.832-.339-1.082zm-51.405-38.45c0-.869.707-1.576 1.576-1.576h3.002c.535 0 .971-.436.971-.971 0-1.561 1.27-2.832 2.832-2.832 1.564 0 2.838 1.271 2.838 2.832 0 .535.434.971.969.971h3.121c.869 0 1.578.707 1.578 1.576v1.359c0 .869-.709 1.576-1.578 1.576h-13.733c-.869 0-1.576-.707-1.576-1.576zm22.069 46.221h-30.862c-.527 0-.959-.43-.959-.959v-42.435c0-.529.432-.961.959-.961h1.32v29.275c0 .012.006.025.006.039.004.09.02.178.049.264.006.018.01.037.018.055.039.102.092.199.168.285l4.629 5.232 5.086 5.752c.184.207.447.326.725.326h18.861zm-26.42-14.111h6.592v7.453l-4.541-5.133zm26.775 4.23-2.84 2.107c-.336.248-.475.686-.344 1.082.133.396.504.666.922.666h1.906v.959h-17.888v-10.013c0-.537-.434-.971-.969-.971h-8.744v-28.304h3.645c.248 1.699 1.699 3.01 3.465 3.01h13.732c1.766 0 3.217-1.311 3.465-3.01h3.65zm20.057-5.621h3.203v3.447l-3.203-2.395zm-18.117-28.853h1.314c.527 0 .959.432.959.961v30.389l-2.273 1.686zm13.808 52.877h-5.357v-7.203h5.357zm8.807 0h-6.867v-8.174c0-.535-.434-.969-.969-.969h-7.299c-.535 0-.969.434-.969.969v8.174h-6.867v-14.547h22.971zm-23.883-16.487 12.461-9.244 12.352 9.244z"/><path d="m12.392 22.748-1.475 1.477-.629-.629c-.379-.379-.994-.379-1.371 0-.379.379-.379.992 0 1.371l1.313 1.314c.189.189.439.283.688.283s.496-.094.686-.283l2.16-2.162c.379-.377.379-.992 0-1.371s-.993-.379-1.372 0z"/><path d="m12.392 15.9-1.477 1.477-.627-.627c-.379-.379-.994-.379-1.371 0-.379.379-.379.992 0 1.371l1.313 1.313c.184.184.43.285.688.285.256 0 .502-.102.686-.285l2.16-2.16c.379-.379.379-.994 0-1.373-.38-.378-.995-.378-1.372-.001z"/><path d="m12.392 29.596-1.475 1.475-.629-.627c-.379-.379-.994-.379-1.371 0-.379.379-.379.992 0 1.371l1.313 1.313c.189.189.439.285.688.285s.496-.096.686-.285l2.16-2.16c.379-.379.379-.992 0-1.371s-.993-.38-1.372-.001z"/><path d="m31.179 25.617h-6.949c-.535 0-.969.434-.969.969v6.951c0 .535.434.969.969.969h6.949c.535 0 .971-.434.971-.969v-6.951c-.001-.535-.436-.969-.971-.969zm-.969 6.949h-5.01v-5.01h5.01z"/><path d="m23.261 16.109v6.949c0 .537.434.971.969.971h6.949c.535 0 .971-.434.971-.971v-6.949c0-.535-.436-.969-.971-.969h-6.949c-.536.001-.969.434-.969.969zm1.939.971h5.01v5.01h-5.01z"/><path d="m31.179 36.096h-6.949c-.535 0-.969.434-.969.969v6.951c0 .535.434.969.969.969h6.949c.535 0 .971-.434.971-.969v-6.951c-.001-.536-.436-.969-.971-.969zm-.969 6.949h-5.01v-5.01h5.01z"/></g></svg>