<svg xmlns="http://www.w3.org/2000/svg" width="64" height="64" enable-background="new 0 0 64 64" viewBox="0 0 64 64" id="family-house"><path fill="#010101" d="M63.982,27.214c-0.09-0.838-0.535-1.584-1.258-2.105l-9.01-6.445V5.956c0-0.537-0.434-0.971-0.969-0.971
		h-7.594c-0.537,0-0.971,0.434-0.971,0.971v5.887L32.563,3.532c-0.336-0.24-0.789-0.24-1.127,0L1.27,25.11
		c-0.719,0.52-1.162,1.266-1.254,2.104c-0.088,0.816,0.176,1.615,0.752,2.26l0.209,0.229c0.656,0.73,1.594,1.111,2.543,1.111
		c0.703,0,1.414-0.211,2.018-0.641l3.65-2.611v31.146H3.949c-0.535,0-0.971,0.434-0.971,0.969c0,0.537,0.436,0.971,0.971,0.971
		h6.203c0.002,0,0.004,0,0.006,0s0.002,0,0.004,0h15.072c0.002,0,0.004,0,0.006,0c0,0,0.002,0,0.004,0h13.514c0,0,0.002,0,0.004,0
		s0.002,0,0.004,0h15.072c0.002,0,0.004,0,0.006,0c0,0,0.002,0,0.004,0h6.201c0.535,0,0.971-0.434,0.971-0.971
		c0-0.535-0.436-0.969-0.971-0.969h-5.236V27.563l0.783,0.561l2.867,2.051c1.396,0.994,3.438,0.781,4.525-0.449l0.252-0.262
		C63.807,28.831,64.07,28.03,63.982,27.214z M46.121,6.925h5.654v10.352l-5.654-4.045V6.925z M24.27,58.708H11.127V53.04H24.27
		V58.708z M37.791,58.708H26.209V43.644h11.582V58.708z M37.791,41.704H26.209v-2.186h11.582V41.704z M52.873,58.708H39.73V53.04
		h13.143V58.708z M52.873,51.101H39.73V38.548c0-0.535-0.434-0.969-0.969-0.969H25.24c-0.537,0-0.971,0.434-0.971,0.969v12.553
		H11.127V26.175L32,11.243l20.873,14.932V51.101z M61.818,28.146l-0.256,0.266c-0.467,0.529-1.371,0.613-1.973,0.184l-2.865-2.049
		L32.564,9.261c-0.338-0.24-0.791-0.24-1.129,0L4.41,28.595c-0.602,0.43-1.512,0.344-1.996-0.195l-0.211-0.229
		c-0.199-0.223-0.287-0.482-0.26-0.75c0.031-0.283,0.195-0.545,0.459-0.734L32,5.513l12.436,8.896
		c0.088,0.094,0.191,0.172,0.313,0.225l16.844,12.049c0.268,0.193,0.432,0.455,0.463,0.74
		C62.084,27.688,61.994,27.948,61.818,28.146z"></path><path fill="#010101" d="M26.547 23.407c0 3.059 2.445 5.547 5.451 5.547 3.008 0 5.453-2.488 5.453-5.547s-2.445-5.547-5.453-5.547C28.992 17.86 26.547 20.349 26.547 23.407zM35.512 23.407c0 1.988-1.576 3.607-3.514 3.607-1.936 0-3.512-1.619-3.512-3.607 0-1.99 1.576-3.607 3.512-3.607C33.936 19.8 35.512 21.417 35.512 23.407zM35.535 51.237c.535 0 .969-.434.969-.971v-1.803c0-.535-.434-.971-.969-.971-.537 0-.971.436-.971.971v1.803C34.564 50.804 34.998 51.237 35.535 51.237zM14.057 57.745c.535 0 .971-.434.971-.971v-1.803c0-.535-.436-.969-.971-.969s-.969.434-.969.969v1.803C13.088 57.312 13.521 57.745 14.057 57.745zM17.662 57.745c.535 0 .971-.434.971-.971v-1.803c0-.535-.436-.969-.971-.969s-.969.434-.969.969v1.803C16.693 57.312 17.127 57.745 17.662 57.745zM21.268 57.745c.537 0 .971-.434.971-.971v-1.803c0-.535-.434-.969-.971-.969-.535 0-.969.434-.969.969v1.803C20.299 57.312 20.732 57.745 21.268 57.745zM42.66 57.745c.535 0 .971-.434.971-.971v-1.803c0-.535-.436-.969-.971-.969s-.969.434-.969.969v1.803C41.691 57.312 42.125 57.745 42.66 57.745zM46.266 57.745c.535 0 .971-.434.971-.971v-1.803c0-.535-.436-.969-.971-.969s-.969.434-.969.969v1.803C45.297 57.312 45.73 57.745 46.266 57.745zM49.873 57.745c.535 0 .969-.434.969-.971v-1.803c0-.535-.434-.969-.969-.969-.537 0-.971.434-.971.969v1.803C48.902 57.312 49.336 57.745 49.873 57.745z"></path></svg>