<?xml version="1.0" encoding="UTF-8"?>
<svg xmlns="http://www.w3.org/2000/svg" xmlns:xlink="http://www.w3.org/1999/xlink" version="1.1" id="Capa_1" x="0px" y="0px" viewBox="0 0 512 512" style="enable-background:new 0 0 512 512;" xml:space="preserve" width="512" height="512">
<g>
	<path style="fill:none;stroke:#000000;stroke-width:15;stroke-linecap:round;stroke-linejoin:round;stroke-miterlimit:10;" d="&#10;&#9;&#9;M454.683,282.98V163.501c0-19.758-16.017-35.775-35.776-35.775h-249c-0.453,0.311-0.834,0.72-1.099,1.206l-10.817,19.777&#10;&#9;&#9;c-1.334,2.439-4.837,2.439-6.17,0l-10.817-19.777c-0.266-0.486-0.646-0.894-1.099-1.206H93.093&#10;&#9;&#9;c-19.758,0-35.776,16.017-35.776,35.775V190.5"/>
	
		<line style="fill:none;stroke:#000000;stroke-width:15;stroke-linecap:round;stroke-linejoin:round;stroke-miterlimit:10;" x1="57.317" y1="225.5" x2="57.317" y2="282.98"/>
	<g>
		
			<rect x="25.083" y="425.088" style="fill:none;stroke:#000000;stroke-width:15;stroke-linecap:round;stroke-linejoin:round;stroke-miterlimit:10;" width="46.561" height="49.231"/>
		
			<rect x="440.356" y="425.088" style="fill:none;stroke:#000000;stroke-width:15;stroke-linecap:round;stroke-linejoin:round;stroke-miterlimit:10;" width="46.561" height="49.231"/>
	</g>
	<g>
		<path style="fill:none;stroke:#000000;stroke-width:15;stroke-linecap:round;stroke-linejoin:round;stroke-miterlimit:10;" d="&#10;&#9;&#9;&#9;M419.459,282.083c1.167-2.747,1.817-5.762,1.817-8.922v-52.384c0-12.643-10.344-22.988-22.988-22.988H298.41&#10;&#9;&#9;&#9;c-12.643,0-22.988,10.345-22.988,22.988v52.384c0,3.16,0.65,6.175,1.817,8.922"/>
		<path style="fill:none;stroke:#000000;stroke-width:15;stroke-linecap:round;stroke-linejoin:round;stroke-miterlimit:10;" d="&#10;&#9;&#9;&#9;M234.761,282.083c1.167-2.747,1.817-5.762,1.817-8.922v-52.384c0-12.643-10.344-22.988-22.988-22.988h-99.878&#10;&#9;&#9;&#9;c-12.643,0-22.988,10.345-22.988,22.988v52.384c0,3.16,0.65,6.175,1.817,8.922H234.761z"/>
	</g>
	<path style="fill:none;stroke:#000000;stroke-width:15;stroke-linecap:round;stroke-linejoin:round;stroke-miterlimit:10;" d="&#10;&#9;&#9;M336,282.083H65.828c-22.503,0-40.746,18.242-40.746,40.746v21.379h461.835v-21.379c0-22.503-18.242-40.746-40.746-40.746H371"/>
	<path style="fill:none;stroke:#000000;stroke-width:15;stroke-linecap:round;stroke-linejoin:round;stroke-miterlimit:10;" d="&#10;&#9;&#9;M172,425.088h317.5c8.284,0,15-6.716,15-15v-50.88c0-8.284-6.716-15-15-15h-467c-8.284,0-15,6.716-15,15v50.88&#10;&#9;&#9;c0,8.284,6.716,15,15,15H137"/>
	
		<line style="fill:none;stroke:#000000;stroke-width:15;stroke-linecap:round;stroke-linejoin:round;stroke-miterlimit:10;" x1="504.5" y1="386.947" x2="7.5" y2="386.947"/>
	<path style="fill:none;stroke:#000000;stroke-width:15;stroke-linecap:round;stroke-linejoin:round;stroke-miterlimit:10;" d="&#10;&#9;&#9;M157.991,78.555l10.817,19.777c0.323,0.59,0.808,1.075,1.398,1.398l19.777,10.817c2.439,1.334,2.439,4.837,0,6.17l-19.777,10.817&#10;&#9;&#9;c-0.59,0.323-1.075,0.808-1.398,1.398l-10.817,19.777c-1.334,2.439-4.837,2.439-6.17,0l-10.817-19.777&#10;&#9;&#9;c-0.323-0.59-0.808-1.075-1.398-1.398l-19.777-10.817c-2.439-1.334-2.439-4.837,0-6.17l19.777-10.817&#10;&#9;&#9;c0.59-0.323,1.075-0.808,1.398-1.398l10.817-19.777C153.155,76.116,156.657,76.116,157.991,78.555z"/>
	<g>
		
			<line style="fill:none;stroke:#000000;stroke-width:15;stroke-linecap:round;stroke-linejoin:round;stroke-miterlimit:10;" x1="220.248" y1="42.071" x2="220.248" y2="73.575"/>
		
			<line style="fill:none;stroke:#000000;stroke-width:15;stroke-linecap:round;stroke-linejoin:round;stroke-miterlimit:10;" x1="204.496" y1="57.823" x2="236" y2="57.823"/>
	</g>
	<g>
		
			<line style="fill:none;stroke:#000000;stroke-width:15;stroke-linecap:round;stroke-linejoin:round;stroke-miterlimit:10;" x1="284.248" y1="81.071" x2="284.248" y2="102.575"/>
		
			<line style="fill:none;stroke:#000000;stroke-width:15;stroke-linecap:round;stroke-linejoin:round;stroke-miterlimit:10;" x1="273.496" y1="91.823" x2="295" y2="91.823"/>
	</g>
	<path style="fill:none;stroke:#000000;stroke-width:15;stroke-linecap:round;stroke-linejoin:round;stroke-miterlimit:10;" d="&#10;&#9;&#9;M362.16,39.51l8.401,15.361c0.323,0.59,0.808,1.075,1.398,1.398l15.361,8.401c2.439,1.334,2.439,4.837,0,6.17l-15.361,8.401&#10;&#9;&#9;c-0.59,0.323-1.075,0.808-1.398,1.398l-8.401,15.361c-1.334,2.439-4.837,2.439-6.17,0l-8.401-15.361&#10;&#9;&#9;c-0.323-0.59-0.808-1.075-1.398-1.398l-15.361-8.401c-2.439-1.334-2.439-4.837,0-6.17l15.361-8.401&#10;&#9;&#9;c0.59-0.323,1.075-0.808,1.398-1.398l8.401-15.361C357.324,37.072,360.826,37.072,362.16,39.51z"/>
	
		<line style="fill:none;stroke:#000000;stroke-width:15;stroke-linecap:round;stroke-linejoin:round;stroke-miterlimit:10;" x1="7.5" y1="474.319" x2="504.5" y2="474.319"/>
</g>















</svg>
