<svg fill="none" height="512" viewBox="0 0 24 24" width="512" xmlns="http://www.w3.org/2000/svg"><g fill="rgb(0,0,0)"><path d="m12 3.25c.4142 0 .75.33579.75.75s-.3358.75-.75.75c-4.00406 0-7.25 3.24594-7.25 7.25 0 4.0041 3.24594 7.25 7.25 7.25.4142 0 .75.3358.75.75s-.3358.75-.75.75c-4.83249 0-8.75-3.9175-8.75-8.75 0-4.83249 3.91751-8.75 8.75-8.75z"/><path d="m16.4697 9.53033c-.2929-.29289-.2929-.76777 0-1.06066s.7677-.29289 1.0606 0l3 3.00003c.2929.2929.2929.7677 0 1.0606l-3 3c-.2929.2929-.7677.2929-1.0606 0s-.2929-.7677 0-1.0606l1.7196-1.7197h-8.1893c-.41421 0-.75-.3358-.75-.75s.33579-.75.75-.75h8.1893z"/></g></svg>