<?xml version="1.0" encoding="UTF-8" standalone="no"?>
<!-- Created with Inkscape (http://www.inkscape.org/) -->

<svg
   version="1.1"
   id="svg2871"
   xml:space="preserve"
   width="682.66669"
   height="682.66669"
   viewBox="0 0 682.66669 682.66669"
   xmlns="http://www.w3.org/2000/svg"
   xmlns:svg="http://www.w3.org/2000/svg"><defs
     id="defs2875"><clipPath
       clipPathUnits="userSpaceOnUse"
       id="clipPath2885"><path
         d="M 0,512 H 512 V 0 H 0 Z"
         id="path2883" /></clipPath></defs><g
     id="g2877"
     transform="matrix(1.3333333,0,0,-1.3333333,0,682.66667)"><g
       id="g2879"><g
         id="g2881"
         clip-path="url(#clipPath2885)"><g
           id="g2887"
           transform="translate(146.3652,413.1538)"><path
             d="m 0,0 v 0 c -12.026,0 -21.775,9.749 -21.775,21.775 v 47.796 c 0,12.026 9.749,21.775 21.775,21.775 12.026,0 21.775,-9.749 21.775,-21.775 V 21.775 C 21.775,9.749 12.026,0 0,0 Z"
             style="fill:none;stroke:#000000;stroke-width:15;stroke-linecap:round;stroke-linejoin:round;stroke-miterlimit:10;stroke-dasharray:none;stroke-opacity:1"
             id="path2889" /></g><g
           id="g2891"
           transform="translate(256,413.1538)"><path
             d="m 0,0 v 0 c -12.026,0 -21.775,9.749 -21.775,21.775 v 47.796 c 0,12.026 9.749,21.775 21.775,21.775 12.026,0 21.775,-9.749 21.775,-21.775 V 21.775 C 21.775,9.749 12.026,0 0,0 Z"
             style="fill:none;stroke:#000000;stroke-width:15;stroke-linecap:round;stroke-linejoin:round;stroke-miterlimit:10;stroke-dasharray:none;stroke-opacity:1"
             id="path2893" /></g><g
           id="g2895"
           transform="translate(365.6348,413.1538)"><path
             d="m 0,0 v 0 c -12.026,0 -21.776,9.749 -21.776,21.775 v 47.796 c 0,12.026 9.75,21.775 21.776,21.775 12.026,0 21.775,-9.749 21.775,-21.775 V 21.775 C 21.775,9.749 12.026,0 0,0 Z"
             style="fill:none;stroke:#000000;stroke-width:15;stroke-linecap:round;stroke-linejoin:round;stroke-miterlimit:10;stroke-dasharray:none;stroke-opacity:1"
             id="path2897" /></g><g
           id="g2899"
           transform="translate(413.6729,375.5059)"><path
             d="m 0,0 h 26.33 v 69.505 c 0,10.82 -8.771,19.591 -19.591,19.591 h -33.002"
             style="fill:none;stroke:#000000;stroke-width:15;stroke-linecap:round;stroke-linejoin:round;stroke-miterlimit:10;stroke-dasharray:none;stroke-opacity:1"
             id="path2901" /></g><g
           id="g2903"
           transform="translate(124.5898,464.6016)"><path
             d="M 0,0 H -33.002 C -43.821,0 -52.593,-8.771 -52.593,-19.591 V -89.096 H 254.083"
             style="fill:none;stroke:#000000;stroke-width:15;stroke-linecap:round;stroke-linejoin:round;stroke-miterlimit:10;stroke-dasharray:none;stroke-opacity:1"
             id="path2905" /></g><g
           id="g2907"
           transform="translate(440.0029,186.6094)"><path
             d="m 0,0 c 0,-47.502 -18.87,-93.06 -52.46,-126.649 -33.59,-33.59 -79.147,-52.46 -126.65,-52.46 40.974,0 74.19,33.215 74.19,74.19 v 13.894 c 0,9.298 7.538,16.836 16.836,16.836 h 13.895 C -33.216,-74.189 0,-40.974 0,0 Z"
             style="fill:none;stroke:#000000;stroke-width:15;stroke-linecap:round;stroke-linejoin:round;stroke-miterlimit:10;stroke-dasharray:none;stroke-opacity:1"
             id="path2909" /></g><g
           id="g2911"
           transform="translate(238.332,125.6826)"><path
             d="M 0,0 -65.819,65.82 -35.335,96.305 0,60.97 l 70.671,70.67 30.484,-30.485 z"
             style="fill:none;stroke:#000000;stroke-width:15;stroke-linecap:round;stroke-linejoin:round;stroke-miterlimit:10;stroke-dasharray:none;stroke-opacity:1"
             id="path2913" /></g><g
           id="g2915"
           transform="translate(71.9971,38.5444)"><path
             d="m 0,0 v -11.454 c 0,-10.819 8.771,-19.59 19.591,-19.59 h 328.824 c 10.82,0 19.591,8.771 19.591,19.59 v 348.415"
             style="fill:none;stroke:#000000;stroke-width:15;stroke-linecap:round;stroke-linejoin:round;stroke-miterlimit:10;stroke-dasharray:none;stroke-opacity:1"
             id="path2917" /></g><g
           id="g2919"
           transform="translate(71.9971,375.5059)"><path
             d="M 0,0 V -301.961"
             style="fill:none;stroke:#000000;stroke-width:15;stroke-linecap:round;stroke-linejoin:round;stroke-miterlimit:10;stroke-dasharray:none;stroke-opacity:1"
             id="path2921" /></g><g
           id="g2923"
           transform="translate(382.1924,175.1025)"><path
             d="m 0,0 c 0.691,5.369 1.048,10.843 1.048,16.4 0,70.273 -56.968,127.24 -127.24,127.24 -70.273,0 -127.241,-56.967 -127.241,-127.24 0,-70.272 56.968,-127.239 127.241,-127.239 29.887,0 57.368,10.304 79.083,27.554"
             style="fill:none;stroke:#000000;stroke-width:15;stroke-linecap:round;stroke-linejoin:round;stroke-miterlimit:10;stroke-dasharray:none;stroke-opacity:1"
             id="path2925" /></g><g
           id="g2927"
           transform="translate(355.6855,112.4199)"><path
             d="M 0,0 C 6.795,8.554 12.512,18.002 16.946,28.14"
             style="fill:none;stroke:#000000;stroke-width:15;stroke-linecap:round;stroke-linejoin:round;stroke-miterlimit:10;stroke-dasharray:none;stroke-opacity:1"
             id="path2929" /></g><g
           id="g2931"
           transform="translate(234.2246,464.6016)"><path
             d="M 0,0 H -66.084"
             style="fill:none;stroke:#000000;stroke-width:15;stroke-linecap:round;stroke-linejoin:round;stroke-miterlimit:10;stroke-dasharray:none;stroke-opacity:1"
             id="path2933" /></g><g
           id="g2935"
           transform="translate(343.8584,464.6016)"><path
             d="M 0,0 H -66.083"
             style="fill:none;stroke:#000000;stroke-width:15;stroke-linecap:round;stroke-linejoin:round;stroke-miterlimit:10;stroke-dasharray:none;stroke-opacity:1"
             id="path2937" /></g></g></g></g></svg>
