<?xml version="1.0" encoding="UTF-8"?>
<svg xmlns="http://www.w3.org/2000/svg" width="512" height="512" viewBox="0 0 512 512"><g><path d="M496,192H418.94L284.78,77.97a32,32,0,1,0-57.56,0L93.06,192H16a8,8,0,0,0-8,8V472a8,8,0,0,0,8,8H496a8,8,0,0,0,8-8V200A8,8,0,0,0,496,192ZM256,48a16,16,0,1,1-16,16A16.021,16.021,0,0,1,256,48ZM237.59,90.15a31.893,31.893,0,0,0,36.82,0L394.24,192H117.76ZM488,464H24V352H488Zm0-128H24V208H488Z"/><path d="M320,248a8,8,0,0,0-8,8v8H232V248a8,8,0,0,0-8-8H200v-8a8,8,0,0,0-16,0v80a8,8,0,0,0,16,0H312a8,8,0,0,0,16,0V256A8,8,0,0,0,320,248Zm-120,8h16v8H200Zm112,40H200V280H312Z"/><path d="M226.263,423.949,223.34,447.32a8,8,0,0,0,11.336,8.236l21.324-10,21.324,10a8,8,0,0,0,11.336-8.236l-2.923-23.371,16.1-17.19a8,8,0,0,0-4.33-13.325l-23.131-4.443-11.372-20.626a8,8,0,0,0-14.012,0l-11.372,20.626-23.131,4.443a8,8,0,0,0-4.33,13.325ZM244.324,404a8,8,0,0,0,5.5-3.994L256,388.8,262.179,400a8,8,0,0,0,5.5,3.994l12.567,2.414-8.749,9.339a8,8,0,0,0-2.1,6.462l1.588,12.7L259.4,429.475a8,8,0,0,0-6.794,0l-11.586,5.434,1.588-12.7a8,8,0,0,0-2.1-6.462l-8.749-9.339Z"/><path d="M114.263,423.949,111.34,447.32a8,8,0,0,0,11.336,8.236l21.324-10,21.324,10a8,8,0,0,0,11.336-8.236l-2.923-23.371,16.1-17.19a8,8,0,0,0-4.33-13.325l-23.131-4.443-11.372-20.626a8,8,0,0,0-14.012,0l-11.372,20.626-23.131,4.443a8,8,0,0,0-4.33,13.325ZM132.324,404a8,8,0,0,0,5.5-3.994L144,388.8,150.179,400a8,8,0,0,0,5.5,3.994l12.567,2.414-8.749,9.339a8,8,0,0,0-2.1,6.462l1.588,12.7L147.4,429.475a8,8,0,0,0-6.794,0l-11.586,5.434,1.588-12.7a8,8,0,0,0-2.1-6.462l-8.749-9.339Z"/><path d="M338.263,423.949,335.34,447.32a8,8,0,0,0,11.336,8.236l21.324-10,21.324,10a8,8,0,0,0,11.336-8.236l-2.923-23.371,16.1-17.19a8,8,0,0,0-4.33-13.325l-23.131-4.443-11.372-20.626a8,8,0,0,0-14.012,0l-11.372,20.626-23.131,4.443a8,8,0,0,0-4.33,13.325ZM356.324,404a8,8,0,0,0,5.5-3.994L368,388.8,374.179,400a8,8,0,0,0,5.5,3.994l12.567,2.414-8.749,9.339a8,8,0,0,0-2.1,6.462l1.588,12.7L371.4,429.475a8,8,0,0,0-6.794,0l-11.586,5.434,1.588-12.7a8,8,0,0,0-2.1-6.462l-8.749-9.339Z"/></g></svg>
