<svg fill="none" height="24" viewBox="0 0 24 24" width="24" xmlns="http://www.w3.org/2000/svg"><g clip-rule="evenodd" fill-rule="evenodd"><path d="m9.42543 10.2537c.41216-.0412.77967.2595.82087.6717l.5 5c.0413.4121-.2595.7797-.6716.8209-.41217.0412-.77971-.2595-.82092-.6717l-.5-5c-.04122-.4121.25949-.7797.67165-.8209z" fill="#999"/><path d="m14.5747 10.2537c.4121.0412.7128.4088.6716.8209l-.5 5c-.0412.4122-.4087.7129-.8209.6717-.4121-.0412-.7128-.4088-.6716-.8209l.5-5c.0412-.4122.4087-.7129.8209-.6717z" fill="#999"/><g fill="#222"><path d="m10.1238 1.25002h3.3815c.2164-.00014.4049-.00026.5829.02817.7033.1123 1.3119.55096 1.6408 1.18265.0833.15989.1428.33877.2111.5441l.1116.3349c.0189.05669.0243.07274.0289.08538.1751.48411.6291.81137 1.1438.82442.0135.00034.0301.0004.0901.0004h3c.4143 0 .75.33578.75.75 0 .41421-.3357.75-.75.75h-17.00005c-.41421 0-.75-.33579-.75-.75 0-.41422.33579-.75.75-.75h3.00009c.06004 0 .07661-.00006.09015-.0004.51465-.01305.96867-.34028 1.14379-.8244.0046-.01273.0099-.02843.02889-.0854l.1116-.33488c.0683-.20532.12781-.38423.21107-.54412.32894-.63169.93754-1.07035 1.64084-1.18265.17802-.02843.36654-.02831.58292-.02817zm-1.3012 3.00002c.05151-.10102.09716-.206.13643-.31456.01192-.03297.02362-.06806.03864-.11314l.09981-.29942c.09117-.27351.11216-.32929.13298-.36928.10965-.21057.31252-.35678.54695-.39422.04453-.00711.10407-.00938.39239-.00938h3.2895c.2883 0 .3478.00227.3924.00938.2344.03744.4373.18365.5469.39422.0208.03999.0418.09576.133.36928l.0997.29924.0388.11334c.0392.10855.0849.21352.1364.31454z"/><path d="m5.11678 7.75166c.41329-.02755.77067.28515.79823.69845l.45994 6.89909c.08985 1.3479.15388 2.2857.29445 2.9913.13635.6845.32668 1.0468.6001 1.3026.27341.2557.64757.4216 1.33957.5121.7134.0933 1.65343.0948 3.00423.0948h.7734c1.3508 0 2.2908-.0015 3.0042-.0948.692-.0905 1.0662-.2564 1.3396-.5121.2734-.2558.4638-.6181.6001-1.3026.1406-.7056.2046-1.6434.2945-2.9913l.4599-6.89909c.0275-.4133.3849-.726.7982-.69845s.726.38493.6985.79823l-.4635 6.95171c-.0855 1.2828-.1545 2.3189-.3165 3.132-.1684.8453-.4548 1.5514-1.0464 2.1048-.5916.5535-1.3152.7923-2.1698.9041-.8221.1075-1.8605.1075-3.1461.1075h-.8788c-1.2856 0-2.32405 0-3.14609-.1075-.85465-.1118-1.5782-.3506-2.16979-.9041-.5916-.5534-.87802-1.2595-1.04641-2.1048-.16198-.8131-.23104-1.8492-.31653-3.132l-.46345-6.95171c-.02756-.4133.28515-.77068.69845-.79823z"/></g></g></svg>