<svg width="24" height="24" viewBox="0 0 24 24" fill="none" xmlns="http://www.w3.org/2000/svg">
<path d="M16.538 4.0447H15.509V3.22149C15.509 2.76724 15.1411 2.39844 14.686 2.39844C14.2308 2.39844 13.8629 2.76724 13.8629 3.22149V4.0447H7.278V3.22149C7.278 2.76724 6.9101 2.39844 6.45494 2.39844C5.99978 2.39844 5.63174 2.76724 5.63174 3.22149V4.0447H4.60295C3.35427 4.0447 2.33936 5.05947 2.33936 6.30815V15.5681C2.33936 16.9295 3.44727 18.0374 4.80868 18.0374H8.92427C9.37943 18.0374 9.74732 17.6688 9.74732 17.2144C9.74732 16.76 9.37943 16.3913 8.92427 16.3913H4.80868C4.35427 16.3913 3.98562 16.0218 3.98562 15.5681V8.98335H17.1553C17.1553 9.43761 17.5232 9.80641 17.9783 9.80641C18.4335 9.80641 18.8016 9.43761 18.8016 8.98335V6.30815C18.8016 5.05947 17.7866 4.0447 16.538 4.0447Z" fill="#0B66C3"/>
<path d="M16.25 11.4531C13.3 11.4531 10.8999 13.8533 10.8999 16.8032C10.8999 19.7533 13.3 22.1535 16.25 22.1535C19.2001 22.1535 21.6002 19.7533 21.6002 16.8032C21.6002 13.8533 19.2001 11.4531 16.25 11.4531ZM18.7243 15.9019L16.0492 18.9886C15.8994 19.1615 15.6845 19.2635 15.4566 19.2725C15.4467 19.2725 15.4369 19.2725 15.4269 19.2725C15.2089 19.2725 14.9998 19.1862 14.845 19.0314L13.4046 17.591C13.0827 17.2691 13.0827 16.749 13.4046 16.4272C13.7264 16.1053 14.2465 16.1053 14.5685 16.4272L15.3841 17.2429L17.4798 14.8245C17.7778 14.4804 18.2979 14.4451 18.6413 14.7414C18.9844 15.0385 19.0215 15.5588 18.7243 15.9019Z" fill="#0B66C3"/>
</svg>
