<svg width="708" height="482" viewBox="0 0 708 482" fill="none" xmlns="http://www.w3.org/2000/svg">
<mask id="mask0_1_15" style="mask-type:luminance" maskUnits="userSpaceOnUse" x="0" y="0" width="708" height="482">
<path d="M708 0H0V482H708V0Z" fill="white"/>
</mask>
<g mask="url(#mask0_1_15)">
<path d="M144.088 16.884L195.302 160.238C201.563 177.846 218.42 189.745 237.124 189.745H602.522C607.82 189.745 611.673 194.89 610.068 200.036L602.844 223.835C601.8 227.131 598.75 229.463 595.298 229.463H284.244C274.45 229.463 264.657 232.357 256.79 238.226C240.736 250.367 235.037 271.11 241.539 289.039L282.959 404.253C289.301 421.861 306.078 433.679 324.701 433.679H334.735C339.952 412.695 358.897 397.178 381.373 397.178C403.849 397.178 422.793 412.615 428.011 433.599L500.898 433.519C506.196 412.695 525.06 397.258 547.536 397.258C570.012 397.258 588.876 412.695 594.174 433.438H613.761C619.219 433.438 624.116 429.82 625.801 424.594L643.461 368.073C646.03 359.952 639.929 351.671 631.42 351.671L356.328 351.993C353.037 351.993 349.986 349.902 348.863 346.767L339.952 322.003C338.106 316.858 341.959 311.39 347.418 311.39H628.531C648.197 311.39 665.215 298.768 670.995 279.954L705.913 165.625C710.007 152.198 707.518 137.485 699.17 126.148C690.822 114.892 677.497 108.138 663.449 108.138H275.574C268.269 108.138 261.767 103.556 259.279 96.641L227.812 8.362C225.966 3.377 221.23 0 215.932 0H156.049C147.299 0 141.199 8.683 144.088 16.884Z" fill="#141313"/>
<path d="M511.253 445.337C511.253 465.518 527.548 481.839 547.697 481.839C567.845 481.839 584.14 465.518 584.14 445.337C584.14 425.157 567.845 408.836 547.697 408.836C527.548 408.836 511.253 425.157 511.253 445.337Z" fill="#141313"/>
<path d="M381.533 481.839C401.661 481.839 417.977 465.497 417.977 445.337C417.977 425.178 401.661 408.836 381.533 408.836C361.406 408.836 345.09 425.178 345.09 445.337C345.09 465.497 361.406 481.839 381.533 481.839Z" fill="#141313"/>
<path d="M165.521 482H309.128C316.754 482 322.935 475.809 322.935 468.171C322.935 460.533 316.754 454.342 309.128 454.342H165.521C157.895 454.342 151.714 460.533 151.714 468.171C151.714 475.809 157.895 482 165.521 482Z" fill="#141313"/>
<path d="M65.823 482H118.482C126.108 482 132.288 475.809 132.288 468.171C132.288 460.533 126.108 454.342 118.482 454.342H65.823C58.197 454.342 52.016 460.533 52.016 468.171C52.016 475.809 58.197 482 65.823 482Z" fill="#141313"/>
<path d="M13.807 482H18.784C26.41 482 32.59 475.809 32.59 468.171C32.59 460.533 26.41 454.342 18.784 454.342H13.807C6.18101 454.423 0 460.614 0 468.171C0 475.809 6.18101 482 13.807 482Z" fill="#141313"/>
<path d="M219.946 436.654H254.944C262.57 436.654 268.751 430.463 268.751 422.825C268.751 415.187 262.57 408.996 254.944 408.996H219.946C212.32 408.996 206.139 415.187 206.139 422.825C206.139 430.463 212.32 436.654 219.946 436.654Z" fill="#141313"/>
<path d="M68.231 436.654H172.746C180.371 436.654 186.552 430.463 186.552 422.825C186.552 415.187 180.371 408.996 172.746 408.996H68.231C60.605 408.996 54.424 415.187 54.424 422.825C54.424 430.463 60.605 436.654 68.231 436.654Z" fill="#141313"/>
</g>
</svg>
